<svg viewBox="0 0 405 344" xmlns="http://www.w3.org/2000/svg"><g stroke-width="0" transform="translate(-10.098 29.865)"/><g stroke-linecap="round" stroke-linejoin="round" transform="translate(-10.098 29.865)"/><g stroke-width="0" transform="translate(-10.098 29.865)"/><g stroke-linecap="round" stroke-linejoin="round" transform="translate(-10.098 29.865)"/><g stroke-width="0" transform="translate(-.115 -31.346)"/><g stroke-linecap="round" stroke-linejoin="round" transform="translate(-.115 -31.346)"/><g stroke-width="0" transform="translate(-.115 -31.346)"/><g stroke-linecap="round" stroke-linejoin="round" transform="translate(-.115 -31.346)"/><path style="fill:#c86400" d="m485.274 458.406-10.922 10.922H102.397c-43.689 0-79.869-33.023-84.733-75.432l467.61 64.51z" transform="matrix(-.78422 0 0 .7382 403.189 -17.108)"/><path d="M2.017 314.737c.803-2.268 2.944-3.906 5.42-4.22l154.848-20.095v-16.251L36.078 291.494c-2.61.315-5.286-.82-6.691-2.961-1.339-2.205-1.272-4.914.334-6.993l11.711-15.18c55.743-72.251 83.848-108.723 120.854-190.233V53.575l-58.888 11.087c-3.011.567-6.09-.882-7.428-3.528-1.271-2.646-.468-5.732 1.941-7.56l66.918-50.392c2.008-1.512 4.751-1.827 7.027-.756 2.342 1.071 3.814 3.276 3.814 5.67V29.26c62.634 27.464 144.407 86.11 187.034 209.949.602 1.763.335 3.716-.67 5.291a6.685 6.685 0 0 1-4.75 2.898l-181.615 24.944v16.315l219.891-28.535a7.064 7.064 0 0 1 5.353 1.512c1.473 1.196 2.276 2.897 2.276 4.724 0 41.7-36.002 75.59-80.302 75.59H28.45a7.139 7.139 0 0 1-4.751-1.827L3.623 321.225c-1.807-1.701-2.41-4.221-1.606-6.488zm160.267-293.54-34.596 26.016 34.596-6.488V21.198zm0 85.984C129.963 173.007 100.72 210.864 52.272 273.73l-2.41 3.15 112.422-15.434V107.18zm185.163 128.816c-39.482-108.47-110.215-163.272-167.63-190.862 12.045 39.621 41.423 152.942 3.28 213.476l164.35-22.614zM175.668 81.355v163.587c22.351-44.598 11.176-116.66 0-163.587zM31.193 329.35h291.694c34.262 0 62.635-24.378 66.45-55.684l-366.71 47.621 8.566 8.063z"/><path style="fill:#25a7f8" d="m351.306 87.133-44.116-8.789V51.891z" transform="matrix(-.78422 0 0 .7382 403.189 -17.108)"/><path style="fill:#fff" d="M263.014 96.417a484.9 484.9 0 0 1 10.683-6.135c-3.532 1.945-7.099 4.019-10.683 6.135zm4.028 264.544c-40.233-67.838-22.396-193.59-4.033-264.542-68.58 40.523-146.482 113.812-191.929 246.45 1.357-3.959 3.945-.33 5.362-4.187l190.6 22.279Z" transform="matrix(-.78422 0 0 .7382 403.189 -17.108)"/><path style="fill:#f4f4f4" d="m262.989 96.434.025-.017zm10.709-6.152c3.737-2.056 7.475-4.096 11.136-5.965a348.243 348.243 0 0 0-11.136 5.965z" transform="matrix(-.78422 0 0 .7382 403.189 -17.108)"/><path style="fill:#f4f4f4" d="M284.833 84.317c-3.661 1.869-7.398 3.908-11.136 5.965a484.9 484.9 0 0 0-10.683 6.135c-.009 0-.711.417-.72.425-18.363 70.944-42.185 193.727-1.951 261.557L75.151 331.377a552.43 552.43 0 0 0-4.071 11.491l209.572 30.634c-48.638-82.002-11.178-235.512 4.181-289.185Z" transform="matrix(-.78422 0 0 .7382 403.189 -17.108)"/><path style="fill:#fff" d="M427.815 377.58c-49.723-68.537-87.816-119.217-120.625-181.286l.001 170.941 125.538 22.239-4.914-11.894Z" transform="matrix(-.78422 0 0 .7382 403.189 -17.108)"/><path style="fill:#f4f4f4" d="M447.473 393.981c-61.779-85.16-99.069-136.443-140.283-225.614v34.048c32.81 62.069 66.669 108.77 116.391 177.316l3.072 4.267-119.463-17.425v10.769l143.355 20.906-3.072-4.267Z" transform="matrix(-.78422 0 0 .7382 403.189 -17.108)"/><path style="fill:#b45a00" d="m462.551 455.274-4.156 4.156H86.44c-13.081 0-25.463-3.012-36.564-8.303 14.506 11.375 32.724 18.201 52.521 18.201h371.956l10.922-10.922-22.724-3.132z" transform="matrix(-.78422 0 0 .7382 403.189 -17.108)"/></svg>